<?xml version="1.0" standalone="no"?>
<!DOCTYPE svg PUBLIC "-//W3C//DTD SVG 20010904//EN"
 "http://www.w3.org/TR/2001/REC-SVG-20010904/DTD/svg10.dtd">
<svg version="1.0" xmlns="http://www.w3.org/2000/svg"
 width="459.000000pt" height="459.000000pt" viewBox="0 0 459.000000 459.000000"
 preserveAspectRatio="xMidYMid meet">

<g transform="translate(0.000000,459.000000) scale(0.100000,-0.100000)"
fill="#000000" stroke="none">
<path d="M0 2295 l0 -2295 425 0 425 0 0 68 c0 37 -7 174 -17 304 -15 206 -15
267 -5 455 15 269 30 383 73 551 11 40 19 74 19 76 0 5 -120 44 -175 56 -61
14 -152 15 -168 2 -7 -5 -29 -12 -49 -16 -20 -4 -57 -18 -81 -32 -36 -20 -52
-38 -82 -96 -21 -39 -52 -113 -70 -164 l-32 -93 -7 46 c-3 25 -6 83 -6 128 0
94 15 128 117 272 69 97 238 290 291 332 91 71 228 126 418 166 71 14 144 33
162 41 43 18 53 18 50 -3 -2 -13 5 -19 25 -21 19 -2 31 -11 38 -29 11 -29 0
-43 -34 -43 -12 0 -17 -6 -15 -18 2 -11 23 -23 58 -35 54 -18 80 -38 80 -64 0
-7 -9 -13 -20 -13 -36 0 -21 -19 29 -37 45 -15 53 -24 107 -110 33 -51 64 -93
70 -93 6 0 21 -11 34 -26 23 -23 25 -34 28 -160 l4 -136 27 7 c93 22 116 24
131 7 22 -26 59 -24 96 4 27 21 36 23 53 15 11 -6 38 -9 60 -6 35 4 41 1 63
-28 28 -37 92 -192 128 -309 7 -24 4 -30 -22 -46 -17 -11 -26 -22 -20 -26 6
-3 13 -2 17 4 3 5 16 10 28 10 22 -1 22 -1 2 -12 -11 -6 -21 -12 -23 -13 -1
-1 0 -9 3 -17 4 -11 14 -14 28 -10 20 5 20 4 8 -11 -12 -15 -11 -17 3 -17 9 0
28 -7 42 -16 28 -19 91 -27 99 -13 4 5 -6 20 -21 34 -25 23 -25 25 -6 25 12 0
37 -19 60 -45 42 -47 51 -52 69 -34 6 6 51 13 98 16 87 4 155 23 155 42 0 6
-11 11 -24 11 -15 0 -26 7 -29 19 -2 10 -24 29 -48 42 l-44 24 -1 75 c-1 41
-7 88 -13 103 -17 43 -13 55 10 27 l20 -25 -6 65 c-4 36 -11 83 -15 105 -8 40
-14 127 -11 175 2 34 18 9 26 -42 7 -39 25 -53 25 -20 0 25 11 34 25 22 9 -8
14 -6 19 5 3 8 1 15 -4 15 -6 0 -10 6 -10 13 0 13 51 -38 63 -63 4 -8 16 -28
26 -45 11 -16 20 -36 20 -43 1 -7 12 -23 25 -35 24 -21 67 -95 129 -221 16
-34 31 -84 34 -115 6 -56 25 -91 49 -91 25 0 64 -23 69 -41 4 -10 -7 -41 -25
-72 -50 -89 -52 -107 -30 -242 11 -66 21 -139 22 -163 3 -43 3 -44 -42 -59
-60 -20 -179 -93 -186 -115 -2 -9 -16 -32 -29 -51 -18 -28 -22 -44 -18 -76 3
-23 8 -41 12 -41 3 0 38 18 76 41 53 31 190 88 213 89 1 0 2 -18 2 -40 0 -67
17 -45 30 40 12 76 22 96 34 68 3 -7 3 16 0 52 -6 73 5 124 27 128 14 2 17
-40 18 -310 1 -62 4 -78 16 -78 9 0 15 9 15 25 0 29 16 34 23 8 3 -12 5 -10 6
7 2 35 11 46 45 54 22 6 26 10 16 16 -11 7 -8 11 13 21 14 6 30 24 36 40 9 26
43 54 53 43 8 -8 61 18 87 43 27 26 18 29 -19 8 -39 -22 -60 -19 -60 10 0 13
7 28 16 33 10 6 13 12 6 16 -15 9 -42 -4 -42 -21 0 -11 -7 -14 -25 -11 -14 3
-25 1 -25 -6 0 -6 -7 0 -16 12 -11 16 -22 21 -35 17 -23 -8 -25 8 -3 26 12 10
20 10 35 1 24 -15 51 -15 85 0 22 10 28 10 38 -3 6 -9 29 -18 52 -21 32 -5
156 -57 172 -73 3 -2 -3 -12 -12 -21 -10 -9 -15 -23 -12 -31 3 -8 1 -11 -4 -8
-6 3 -10 1 -10 -5 0 -6 -4 -9 -10 -5 -5 3 -6 15 -1 28 7 20 4 23 -41 34 -49
13 -50 13 -103 -22 -31 -21 -59 -33 -69 -29 -18 7 -46 -17 -46 -40 0 -13 3
-13 27 -1 38 20 47 0 16 -33 -55 -60 -49 -94 7 -42 18 17 36 30 41 30 17 0 9
-28 -8 -33 -16 -4 -16 -5 -1 -6 9 0 18 -8 20 -17 3 -14 7 -13 30 5 23 18 30
20 47 9 15 -9 23 -9 33 0 8 6 25 8 39 5 23 -6 23 -6 7 11 -10 10 -18 21 -18
26 0 16 22 23 31 9 7 -11 12 -12 29 -1 24 15 60 16 60 2 0 -6 -18 -17 -40 -26
-47 -19 -49 -27 -13 -43 19 -9 23 -15 15 -23 -9 -9 -18 -8 -37 0 -21 10 -25 9
-25 -3 0 -12 15 -15 70 -15 39 0 79 6 90 12 17 11 22 10 30 -2 8 -13 10 -13
10 2 0 9 -6 18 -12 21 -10 3 -8 9 4 24 14 15 15 22 6 31 -9 9 -7 12 10 12 18
0 22 -6 22 -29 0 -16 -6 -32 -13 -34 -9 -4 -9 -6 1 -6 6 -1 12 -8 12 -16 0
-13 21 -15 125 -15 l125 0 -4 30 c-2 16 3 38 10 49 11 16 11 21 0 30 -7 6 -22
8 -32 4 -15 -5 -17 -4 -8 8 6 8 14 26 16 41 4 23 1 29 -26 38 l-31 11 29 14
c33 18 39 19 31 5 -11 -18 24 -23 40 -6 9 9 27 19 41 22 14 4 31 19 40 35 9
18 23 29 37 30 12 0 16 3 10 6 -17 6 -17 25 0 21 12 -3 75 40 66 45 -50 29
-73 37 -89 32 -14 -4 -20 -2 -20 8 0 8 -7 17 -15 21 -8 3 -15 12 -15 20 0 22
48 32 74 16 11 -7 35 -14 52 -16 27 -2 30 0 26 21 -5 26 -48 43 -65 26 -15
-15 -27 -14 -27 3 0 34 -68 18 -97 -23 -8 -12 -18 -19 -23 -16 -4 3 -6 -4 -3
-15 6 -23 23 -37 23 -19 0 8 4 8 15 -1 8 -7 15 -19 15 -26 0 -8 5 -14 10 -14
6 0 10 8 10 18 1 16 1 16 11 -1 13 -23 2 -37 -32 -40 -13 -1 -31 -10 -40 -21
-13 -15 -19 -17 -37 -7 -26 14 -28 27 -6 35 30 12 -5 36 -52 36 -23 0 -46 5
-50 11 -5 8 1 10 20 7 27 -5 37 14 15 28 -16 10 12 25 33 18 12 -4 21 3 30 20
6 15 9 28 7 30 -7 6 -79 -6 -75 -13 2 -3 -7 -20 -21 -36 l-25 -30 6 36 c5 30
3 37 -17 48 -20 11 -28 10 -46 0 -11 -8 -21 -17 -21 -21 0 -15 -28 -8 -34 8
-4 10 -12 14 -22 10 -12 -4 -15 -2 -10 9 7 19 4 19 -38 -5 -32 -20 -56 -14
-42 9 4 5 4 16 0 24 -7 18 -41 12 -69 -13 -15 -13 -26 -16 -42 -9 -26 10 -30
27 -8 35 11 5 12 11 5 24 -13 25 -13 33 2 24 19 -12 62 -13 76 -2 7 6 25 12
40 13 46 3 50 5 56 21 5 13 1 15 -20 10 -21 -6 -31 -1 -50 21 -31 36 -40 63
-23 74 11 6 9 13 -9 32 -12 13 -22 28 -22 33 0 6 -12 21 -26 35 -20 18 -24 30
-20 52 8 38 29 60 45 44 8 -8 11 -2 11 26 0 20 -4 37 -10 37 -5 0 -10 -7 -10
-15 0 -10 -10 -15 -30 -15 -23 0 -31 5 -36 24 -9 37 -1 60 24 71 25 11 27 18
10 48 -8 14 -13 89 -14 212 -2 105 -6 200 -9 212 -3 12 -1 24 4 27 10 7 87
-233 106 -331 4 -18 11 -33 16 -33 5 0 9 -7 9 -16 0 -8 11 -32 25 -52 30 -44
33 -63 5 -36 -27 27 -48 44 -55 44 -3 0 -19 -10 -35 -22 -37 -27 -40 -53 -7
-44 16 4 31 -1 44 -13 11 -10 34 -22 51 -26 30 -6 43 -27 24 -39 -20 -12 -11
-74 14 -101 26 -28 25 -31 -17 -86 -46 -58 -47 -82 -5 -124 20 -19 36 -39 36
-44 0 -4 20 -4 45 2 33 8 45 15 47 31 2 11 14 26 28 33 14 7 25 18 26 25 3 32
5 38 14 38 13 0 13 -36 1 -59 -15 -27 2 -45 35 -36 16 5 32 8 37 7 11 -3 29
49 22 67 -5 12 -10 9 -24 -13 -12 -17 -21 -24 -25 -17 -4 6 -5 15 -2 20 8 13
-20 46 -41 46 -12 0 -19 9 -21 29 -4 31 10 46 46 46 12 0 22 6 22 12 0 7 7 3
15 -9 16 -23 52 -36 61 -22 3 5 -2 12 -10 15 -23 9 -20 27 3 19 31 -9 16 24
-35 80 -24 27 -47 57 -50 67 -3 10 -10 18 -15 18 -5 0 -9 7 -9 15 0 9 -7 29
-15 45 -19 36 -5 39 27 7 13 -13 35 -31 50 -40 16 -10 27 -23 25 -29 -1 -7 7
-14 18 -16 11 -2 25 -13 32 -23 15 -21 71 -51 77 -41 8 14 -7 62 -19 62 -7 0
-23 11 -36 25 -13 13 -29 25 -36 25 -16 0 -133 154 -160 210 -12 25 -33 71
-48 103 -14 31 -30 57 -35 57 -6 0 -10 14 -10 31 0 16 -9 50 -20 75 -12 24
-18 49 -15 54 6 10 -28 76 -76 148 -16 24 -29 46 -29 49 0 3 -11 21 -26 40
-33 43 -55 96 -54 131 1 15 -6 51 -14 81 -9 30 -19 84 -22 120 -4 36 -11 72
-17 78 -5 7 -7 23 -4 35 4 12 2 42 -4 66 -5 24 -12 69 -14 100 -3 31 -11 92
-19 136 -8 45 -20 119 -26 166 -6 47 -15 110 -19 140 -6 38 -5 57 3 62 6 4 7
8 1 8 -5 0 -11 12 -12 26 0 15 -6 29 -11 33 -6 3 -13 20 -17 36 -4 17 -13 48
-21 69 -9 22 -14 53 -14 70 1 17 2 40 1 51 -1 17 -3 18 -12 5 -8 -12 -10 -9
-6 12 2 15 0 25 -4 22 -5 -3 -9 2 -9 11 0 9 -7 27 -16 40 -15 23 -15 25 0 25
16 0 16 2 2 22 -9 12 -16 31 -16 41 0 11 -16 48 -35 84 -19 36 -35 70 -35 76
0 7 -7 25 -15 40 -8 15 -12 33 -10 40 3 7 -9 28 -26 47 -17 19 -35 45 -40 58
-5 12 -17 26 -26 29 -27 10 -43 29 -43 50 0 10 -13 33 -30 51 -16 18 -30 41
-30 50 0 10 -9 23 -20 30 -17 10 -18 16 -8 37 6 14 15 25 20 25 4 0 8 5 8 12
0 9 -3 9 -12 0 -15 -15 -52 4 -44 23 2 7 -2 16 -10 19 -8 3 -14 2 -14 -3 0 -5
-18 -11 -40 -15 -22 -3 -40 -10 -40 -15 0 -5 -9 -11 -21 -14 -23 -6 -17 -27 7
-27 8 0 14 -4 14 -10 0 -5 -15 -10 -34 -10 -52 0 -86 -16 -86 -41 0 -12 8 -23
20 -26 16 -4 20 -13 19 -47 0 -32 -2 -37 -9 -21 -8 19 -9 19 -9 -2 -1 -19 -7
-23 -30 -23 -16 0 -32 -6 -34 -12 -4 -10 -8 -10 -14 -2 -4 6 -19 15 -33 19
-13 4 -33 18 -43 31 -21 27 -67 33 -67 9 0 -25 -16 -17 -18 10 -1 14 4 25 11
26 6 0 2 4 -10 9 -26 10 -29 30 -10 60 10 17 9 22 -2 29 -12 8 -10 15 8 46
l21 37 -22 18 c-13 11 -38 19 -55 20 -18 0 -33 5 -33 10 0 6 7 10 15 10 8 0
15 7 15 15 0 8 7 15 15 15 8 0 15 5 15 11 0 7 -9 9 -21 6 -16 -4 -24 2 -36 29
-16 33 -43 47 -43 22 0 -6 -9 -22 -21 -34 -12 -12 -18 -27 -14 -33 9 -16 25
-13 25 4 0 8 5 15 10 15 13 0 12 -11 -4 -32 -17 -23 -34 -23 -58 -1 -15 13
-21 14 -27 5 -4 -7 -21 -16 -37 -20 -16 -5 -33 -17 -38 -28 -5 -10 -26 -32
-47 -49 -21 -16 -38 -34 -39 -39 0 -5 18 -6 40 -3 22 3 40 1 40 -4 0 -6 -17
-26 -39 -47 -21 -20 -44 -53 -51 -72 -8 -19 -22 -46 -33 -60 -16 -22 -17 -26
-4 -34 13 -9 11 -16 -16 -47 -62 -74 -79 -99 -65 -99 8 -1 5 -6 -7 -16 -46
-33 -56 -46 -51 -59 3 -8 -3 -17 -15 -20 -17 -6 -18 -9 -8 -22 13 -14 5 -25
-26 -36 -6 -2 -4 -20 4 -45 10 -30 20 -42 34 -42 14 0 17 -4 12 -17 -17 -41
-24 -75 -18 -89 3 -8 -2 -23 -11 -33 -11 -12 -13 -21 -7 -25 15 -10 -19 -73
-44 -82 -32 -11 -40 -10 -41 6 0 8 -4 27 -8 42 -6 19 -3 34 8 50 19 26 21 49
4 46 -6 -2 -15 11 -19 27 -4 17 -11 40 -14 53 -5 14 -3 22 4 22 6 0 11 -3 11
-8 0 -4 18 -6 40 -4 34 4 40 7 40 28 0 29 -16 32 -25 4 -8 -25 -40 -26 -50 -2
-6 16 -7 16 -16 0 -12 -22 -54 -25 -46 -4 3 8 0 21 -6 30 -11 14 -14 13 -32
-9 -11 -14 -37 -44 -57 -67 -21 -23 -38 -45 -38 -50 0 -4 -14 -27 -30 -51 -16
-25 -30 -54 -30 -65 0 -33 -12 -82 -20 -82 -5 0 -6 9 -3 20 4 15 0 20 -15 20
-17 0 -21 9 -27 70 -7 74 -14 81 -53 54 -36 -25 -52 -12 -41 33 5 21 9 51 9
67 l0 29 -24 -28 c-13 -16 -31 -56 -40 -90 -13 -52 -36 -106 -91 -216 -5 -10
-17 -21 -26 -24 -14 -5 -38 -51 -55 -105 -4 -14 -12 -29 -19 -35 -14 -11 -34
-48 -63 -115 -10 -25 -25 -60 -33 -77 -8 -18 -17 -33 -21 -33 -3 0 -4 -8 -1
-19 3 -11 -6 -29 -22 -47 -25 -27 -25 -28 -6 -39 20 -10 20 -11 1 -23 -27 -16
-28 -16 -35 16 -4 20 3 45 24 89 17 33 39 82 50 109 10 27 30 74 43 104 14 30
31 71 38 90 8 19 30 64 49 100 63 119 81 160 81 185 0 14 4 25 10 25 25 0 64
111 63 183 0 16 3 24 7 17 4 -7 10 -8 13 -3 3 5 2 15 -4 23 -5 8 -9 25 -9 38
0 13 -4 21 -8 18 -4 -2 -14 0 -22 5 -13 8 -13 10 -1 18 10 7 19 4 27 -7 10
-14 14 -14 28 -3 16 14 12 36 -5 26 -19 -12 -49 6 -49 30 0 26 -22 39 -62 36
-24 -2 -28 1 -28 22 0 26 -25 83 -41 92 -10 7 -2 54 12 69 6 6 13 6 21 -2 18
-18 27 -15 21 8 -3 11 -12 20 -20 20 -11 0 -13 7 -8 31 6 25 4 31 -14 36 -15
4 -21 13 -21 34 0 16 4 29 10 29 5 0 6 -8 3 -17 -5 -13 -2 -15 11 -10 10 4 21
7 26 7 5 0 16 7 24 16 9 8 16 11 16 5 0 -6 4 -11 9 -11 6 0 9 15 8 33 -2 34
-20 60 -46 68 -19 7 -23 69 -5 69 8 0 14 4 14 9 0 5 -8 8 -17 7 -12 -1 -17 5
-15 18 3 15 -1 17 -23 12 -18 -5 -24 -3 -20 4 4 6 8 31 10 56 2 40 0 45 -22
50 -18 5 -23 12 -20 26 4 15 1 18 -14 13 -13 -4 -19 -2 -19 9 0 17 -16 22 -22
8 -5 -15 -78 -1 -78 14 0 8 -4 14 -10 14 -5 0 -10 7 -10 15 0 8 -10 16 -22 17
-13 0 -29 2 -37 2 -23 2 -24 24 -2 36 14 7 27 8 40 1 22 -12 31 -5 31 26 l0
23 -314 0 -313 0 1 -36 c1 -46 -20 -56 -29 -14 -4 16 -14 34 -23 39 -9 5 -108
10 -219 10 l-203 2 0 -2296z m267 2263 c-3 -8 -6 -5 -6 6 -1 11 2 17 5 13 3
-3 4 -12 1 -19z m153 -13 c0 -8 -4 -15 -10 -15 -5 0 -10 7 -10 15 0 8 5 15 10
15 6 0 10 -7 10 -15z m551 -88 c-13 -13 -26 -3 -16 12 3 6 11 8 17 5 6 -4 6
-10 -1 -17z m106 -3 c-9 -9 -28 6 -21 18 4 6 10 6 17 -1 6 -6 8 -13 4 -17z
m-154 -31 c-6 -14 -8 -14 -14 3 -12 30 -10 37 5 24 8 -6 12 -19 9 -27z m-37
-9 c-3 -8 -10 -13 -16 -9 -6 4 -5 13 3 26 13 21 23 8 13 -17z m-203 2 c9 -7
17 -18 17 -25 0 -21 -38 -11 -54 14 -15 23 -15 25 1 25 10 0 26 -7 36 -14z
m-63 -11 c7 -9 10 -18 7 -22 -4 -3 -9 1 -13 10 -3 9 -12 13 -20 10 -8 -3 -14
0 -14 6 0 16 26 13 40 -4z m431 0 c-1 -15 -24 -12 -29 3 -3 9 2 13 12 10 10
-1 17 -7 17 -13z m203 -31 c9 -3 16 -11 16 -16 0 -6 -6 -5 -15 2 -8 6 -20 8
-26 4 -8 -4 -9 -3 -5 4 8 14 9 14 30 6z m-566 -70 c-19 -19 -50 -12 -42 10 7
18 35 26 49 14 5 -5 3 -14 -7 -24z m538 -1 c-10 -10 -19 5 -10 18 6 11 8 11
12 0 2 -7 1 -15 -2 -18z m-246 -37 c0 -11 -19 -15 -25 -6 -3 5 1 10 9 10 9 0
16 -2 16 -4z m235 -16 c-3 -5 -10 -10 -16 -10 -5 0 -9 5 -9 10 0 6 7 10 16 10
8 0 12 -4 9 -10z m-419 -60 c15 -6 24 -13 22 -16 -8 -8 -58 7 -58 17 0 11 3
11 36 -1z m-16 -70 c0 -5 -5 -10 -11 -10 -5 0 -7 5 -4 10 3 6 8 10 11 10 2 0
4 -4 4 -10z m1590 0 c0 -5 -7 -10 -16 -10 -8 0 -12 5 -9 10 3 6 10 10 16 10 5
0 9 -4 9 -10z m-1086 -15 c3 -9 -3 -19 -14 -25 -17 -9 -20 -7 -20 8 0 32 23
44 34 17z m-549 -4 c7 -12 -12 -24 -25 -16 -11 7 -4 25 10 25 5 0 11 -4 15 -9z
m225 -21 c0 -5 -4 -10 -10 -10 -5 0 -10 5 -10 10 0 6 5 10 10 10 6 0 10 -4 10
-10z m-80 -20 c0 -5 -4 -10 -10 -10 -5 0 -10 5 -10 10 0 6 5 10 10 10 6 0 10
-4 10 -10z m-380 -52 c0 -4 7 -8 15 -8 8 0 15 5 15 10 0 6 9 10 20 10 11 0 20
-6 20 -14 0 -7 7 -19 15 -26 9 -7 14 -19 11 -26 -6 -16 20 -38 34 -29 8 5 8
11 1 19 -13 16 -4 26 22 26 11 0 21 -9 24 -21 5 -16 12 -20 31 -16 14 3 37 1
51 -5 24 -9 25 -10 9 -22 -10 -7 -18 -21 -18 -30 0 -9 -11 -27 -25 -40 -14
-13 -25 -26 -25 -30 0 -10 39 -46 50 -46 6 0 10 -4 10 -10 0 -17 -15 -11 -38
15 -12 14 -29 25 -37 25 -20 0 -19 12 5 43 25 32 25 37 -2 37 -13 0 -36 9 -53
20 -19 12 -38 17 -54 13 -14 -3 -22 -2 -18 4 6 9 -13 77 -26 89 -3 3 -13 -11
-21 -31 -13 -30 -14 -46 -6 -77 11 -37 7 -58 -9 -58 -4 0 -12 17 -17 37 -8 34
-34 59 -34 33 0 -21 -25 -37 -58 -38 -41 -1 -49 17 -28 63 10 20 14 44 10 60
-4 14 -2 25 4 25 11 0 28 -56 23 -77 -1 -8 4 -10 14 -7 16 7 21 39 6 49 -5 3
-8 18 -7 33 2 20 9 27 25 28 12 1 25 4 29 8 7 7 32 -21 32 -36z m350 32 c0 -5
-4 -10 -10 -10 -5 0 -10 5 -10 10 0 6 5 10 10 10 6 0 10 -4 10 -10z m-40 -50
c0 -5 -4 -10 -10 -10 -5 0 -10 5 -10 10 0 6 5 10 10 10 6 0 10 -4 10 -10z
m500 -10 c0 -5 -4 -10 -10 -10 -5 0 -10 5 -10 10 0 6 5 10 10 10 6 0 10 -4 10
-10z m-1020 -35 c0 -8 -7 -15 -15 -15 -26 0 -18 20 13 29 1 1 2 -6 2 -14z
m897 -71 c-3 -3 -12 -4 -19 -1 -8 3 -5 6 6 6 11 1 17 -2 13 -5z m-837 -15 c0
-7 8 -18 18 -26 16 -14 16 -14 -3 -8 -11 3 -32 9 -47 12 -30 6 -36 18 -15 26
22 10 47 7 47 -4z m655 -9 c-17 -19 -17 -21 -1 -33 27 -20 10 -50 -25 -43 -17
3 -32 0 -39 -9 -25 -30 -80 -5 -66 30 6 17 41 20 51 5 8 -13 35 -1 35 16 0 8
5 14 11 14 5 0 7 5 4 10 -9 15 4 30 27 30 21 0 21 -1 3 -20z m-57 -9 c3 -8 -1
-12 -9 -9 -7 2 -15 10 -17 17 -3 8 1 12 9 9 7 -2 15 -10 17 -17z m1786 4 c3
-8 1 -15 -4 -15 -6 0 -10 7 -10 15 0 8 2 15 4 15 2 0 6 -7 10 -15z m-1444 -30
c0 -8 -4 -15 -9 -15 -13 0 -22 16 -14 24 11 11 23 6 23 -9z m-668 -7 c-9 -9
-15 -9 -24 0 -9 9 -7 12 12 12 19 0 21 -3 12 -12z m-82 -8 c0 -5 -4 -10 -10
-10 -5 0 -10 5 -10 10 0 6 5 10 10 10 6 0 10 -4 10 -10z m-140 -22 c0 -21 -46
-36 -62 -20 -19 19 -2 39 31 38 22 -1 31 -6 31 -18z m2232 -9 c15 -20 29 -29
41 -25 28 7 97 -36 97 -60 0 -7 25 -38 57 -71 31 -32 56 -61 55 -64 -1 -4 8
-5 18 -2 21 6 28 -13 8 -19 -14 -5 3 -29 77 -110 27 -29 45 -59 45 -73 0 -13
5 -27 10 -30 6 -3 10 -15 10 -25 0 -23 13 -32 33 -24 24 9 27 28 11 79 -11 39
-11 45 0 36 10 -9 15 -8 20 4 3 9 0 15 -9 15 -8 0 -15 7 -15 15 0 27 27 16 41
-17 7 -18 25 -49 41 -68 15 -19 28 -40 28 -46 0 -7 6 -14 14 -17 10 -4 16 -28
19 -79 5 -71 8 -93 22 -157 3 -17 7 -34 7 -38 0 -5 3 -12 7 -18 10 -13 16 -90
15 -205 0 -122 -11 -156 -137 -420 -33 -69 -116 -177 -199 -259 -70 -68 -76
-77 -81 -124 -7 -58 -27 -88 -27 -41 0 51 -13 57 -47 21 -17 -18 -50 -41 -74
-51 -24 -10 -51 -22 -60 -26 -21 -11 -173 -1 -234 15 -86 23 -211 101 -285
179 -8 9 -43 44 -77 79 -35 35 -63 69 -63 75 0 7 -5 12 -10 12 -24 0 -132 191
-160 284 -16 50 -21 156 -8 156 6 0 8 9 5 20 -3 13 3 26 19 39 13 10 21 21 18
23 -3 3 7 9 22 12 26 7 68 50 69 71 0 5 12 26 26 45 15 19 38 57 52 83 39 75
80 98 96 55 17 -44 -80 -176 -195 -265 -16 -13 -5 -8 25 9 52 31 151 132 151
154 0 6 8 18 19 28 10 9 26 34 36 56 10 22 22 40 27 40 4 0 8 9 8 20 0 11 5
20 10 20 6 0 10 -7 10 -15 0 -21 39 -42 81 -44 29 -1 38 3 47 24 14 29 37 24
29 -7 -4 -14 -2 -18 9 -14 8 3 14 1 14 -4 0 -6 6 -10 14 -10 19 0 8 48 -20 87
-15 19 -36 34 -56 38 -102 21 -119 43 -74 98 22 27 31 30 114 36 12 0 22 4 22
9 0 4 -10 12 -22 17 -15 6 -23 19 -23 34 0 25 -24 43 -26 19 0 -7 -5 -2 -10
11 -7 19 -5 36 10 70 10 25 22 63 26 84 4 20 11 37 16 37 5 0 9 9 9 19 0 11 5
23 10 26 6 3 10 17 10 31 0 13 5 24 10 24 6 0 10 9 10 19 0 10 14 34 31 52 16
17 34 40 40 50 8 16 12 16 36 4 15 -8 31 -11 36 -8 10 6 5 -25 -9 -61 -3 -9
-1 -16 5 -16 6 0 11 6 11 14 0 7 7 19 16 27 10 8 14 23 12 41 -6 36 6 36 34
-3z m-2036 0 c9 -15 -23 -10 -35 5 -10 12 -8 13 9 9 11 -3 23 -9 26 -14z
m-278 -42 c-4 -30 -17 -37 -40 -24 -21 14 -25 39 -4 31 7 -3 16 2 20 11 8 23
28 8 24 -18z m519 11 c-3 -8 -6 -5 -6 6 -1 11 2 17 5 13 3 -3 4 -12 1 -19z
m76 -17 c2 -11 1 -23 -3 -28 -5 -4 -10 -19 -12 -33 -1 -14 -7 -24 -11 -22 -5
2 -15 -5 -22 -15 -7 -10 -17 -14 -21 -10 -5 4 -3 11 3 15 6 4 15 20 18 35 4
15 11 30 16 33 5 3 9 14 9 25 0 25 16 25 23 0z m-279 -27 c-17 -25 -34 -32
-34 -12 0 16 31 49 41 42 5 -3 2 -16 -7 -30z m631 -1 c7 -24 -8 -30 -34 -14
-10 7 -11 13 -1 31 13 24 24 18 35 -17z m45 11 c0 -9 -5 -14 -12 -12 -18 6
-21 28 -4 28 9 0 16 -7 16 -16z m-320 -21 c0 -13 -3 -13 -15 -3 -8 7 -15 16
-15 21 0 5 7 6 15 3 8 -4 15 -13 15 -21z m-620 1 c0 -8 -5 -12 -10 -9 -6 4 -8
11 -5 16 9 14 15 11 15 -7z m325 6 c3 -5 26 -10 51 -10 24 0 44 -5 44 -10 0
-21 -37 -51 -53 -44 -10 3 -17 1 -17 -5 0 -24 -21 -9 -27 20 -3 17 -11 28 -17
26 -7 -3 -13 4 -13 14 -2 20 21 26 32 9z m-362 -26 c-4 -10 -9 -12 -15 -6 -12
12 -1 35 12 27 5 -3 6 -13 3 -21z m1053 -1 c-10 -10 -19 5 -10 18 6 11 8 11
12 0 2 -7 1 -15 -2 -18z m-313 -3 c-3 -11 0 -20 6 -20 8 0 9 -5 1 -19 -5 -11
-8 -26 -5 -33 3 -7 2 -25 -3 -40 -6 -24 -9 -25 -26 -12 -17 12 -18 14 -3 14
20 0 22 11 5 28 -9 9 -9 15 -1 23 19 19 4 40 -23 33 -31 -8 -24 16 9 32 35 18
46 16 40 -6z m-513 -10 c0 -5 -4 -10 -9 -10 -6 0 -13 5 -16 10 -3 6 1 10 9 10
9 0 16 -4 16 -10z m650 -5 c0 -9 -9 -15 -21 -15 -18 0 -19 2 -9 15 7 8 16 15
21 15 5 0 9 -7 9 -15z m100 1 c0 -3 -4 -8 -10 -11 -5 -3 -10 -1 -10 4 0 6 5
11 10 11 6 0 10 -2 10 -4z m68 -32 c-9 -9 -21 -13 -28 -9 -8 5 -4 11 12 19 29
16 37 10 16 -10z m-118 -11 c0 -20 -24 -11 -28 10 -2 12 1 15 12 11 9 -3 16
-13 16 -21z m-126 -47 c-17 -13 -16 -14 1 -23 12 -7 16 -17 12 -27 -4 -10 -11
-14 -17 -11 -5 3 -10 1 -10 -5 0 -20 -18 -1 -24 27 -6 21 -2 31 21 49 15 12
30 18 32 13 1 -6 -5 -16 -15 -23z m272 9 c-2 -7 -1 -16 3 -21 14 -15 22 -64
12 -64 -14 0 -33 38 -26 51 4 5 1 16 -5 24 -6 8 -9 19 -5 25 9 14 28 1 21 -15z
m-856 -45 c0 -5 -2 -10 -4 -10 -3 0 -8 5 -11 10 -3 6 -1 10 4 10 6 0 11 -4 11
-10z m-80 -43 c0 -16 -35 -1 -38 16 -3 16 -1 17 17 5 12 -7 21 -17 21 -21z
m900 -97 c-8 -5 -24 -9 -35 -9 -16 1 -16 2 5 9 35 11 48 11 30 0z m-460 -56
c0 -8 -4 -12 -10 -9 -5 3 -10 10 -10 16 0 5 5 9 10 9 6 0 10 -7 10 -16z m1299
-140 c-8 -9 -16 -11 -22 -5 -5 5 -2 16 10 28 13 14 19 15 21 5 2 -7 -2 -20 -9
-28z m-1818 3 c-1 -12 -15 -9 -19 4 -3 6 1 10 8 8 6 -3 11 -8 11 -12z m1306
-43 c-9 -9 -28 6 -21 18 4 6 10 6 17 -1 6 -6 8 -13 4 -17z m-17 -20 c0 -8 -4
-12 -10 -9 -5 3 -10 10 -10 16 0 5 5 9 10 9 6 0 10 -7 10 -16z m-316 -98 c-6
-16 -24 -23 -24 -8 0 10 22 33 27 28 2 -2 1 -11 -3 -20z m537 -167 c-17 -18
-31 -37 -31 -41 0 -5 -7 -8 -15 -8 -8 0 -15 -4 -15 -10 0 -5 -7 -10 -15 -10
-10 0 -15 10 -15 30 0 25 4 30 23 30 12 0 36 13 52 28 41 39 54 23 16 -19z
m-1570 -2 c-13 -13 -26 -3 -16 12 3 6 11 8 17 5 6 -4 6 -10 -1 -17z m-41 -12
c0 -8 -7 -15 -15 -15 -8 0 -15 7 -15 15 0 8 7 15 15 15 8 0 15 -7 15 -15z
m-20 -35 c0 -5 -4 -10 -10 -10 -5 0 -10 5 -10 10 0 6 5 10 10 10 6 0 10 -4 10
-10z m30 -11 c0 -5 -4 -9 -10 -9 -5 0 -10 7 -10 16 0 8 5 12 10 9 6 -3 10 -10
10 -16z m150 11 c0 -5 -4 -10 -10 -10 -5 0 -10 5 -10 10 0 6 5 10 10 10 6 0
10 -4 10 -10z m-160 -40 c0 -5 -7 -10 -15 -10 -8 0 -15 5 -15 10 0 6 7 10 15
10 8 0 15 -4 15 -10z m143 -119 c-4 -15 1 -20 19 -23 12 -2 23 -10 23 -18 0
-8 -7 -13 -15 -11 -8 2 -24 4 -35 5 -13 1 -20 8 -20 21 -1 11 -4 25 -8 32 -4
7 0 13 10 15 25 6 32 1 26 -21z m-157 -88 c-12 -12 -29 15 -21 34 7 17 8 16
18 -5 5 -12 7 -25 3 -29z m188 11 c4 -9 4 -19 2 -21 -8 -8 -26 8 -26 23 0 19
16 18 24 -2z m26 6 c0 -5 -4 -10 -10 -10 -5 0 -10 5 -10 10 0 6 5 10 10 10 6
0 10 -4 10 -10z m555 0 c3 -5 4 -10 1 -10 -2 0 -12 -3 -20 -6 -12 -5 -15 -2
-10 10 7 18 20 21 29 6z m-105 -15 c0 -18 5 -18 30 -5 29 15 32 -4 5 -30 -15
-14 -31 -21 -45 -17 -11 3 -18 1 -15 -3 3 -5 1 -11 -4 -14 -5 -4 -13 -1 -17 5
-4 8 -9 7 -15 -2 -6 -9 -9 1 -9 29 0 38 2 43 19 37 11 -3 22 -1 26 5 9 15 25
12 25 -5z m-536 -43 c-4 -4 -9 -1 -11 6 -3 6 -11 12 -19 12 -23 0 -16 18 9 22
15 2 23 -3 25 -15 2 -10 0 -22 -4 -25z m-40 -6 c42 -41 44 -46 12 -46 -13 0
-27 -7 -30 -16 -4 -9 -9 -14 -13 -11 -3 4 -12 2 -20 -5 -11 -9 -18 -7 -31 6
-14 14 -15 18 -3 25 7 5 10 14 7 20 -4 6 -2 11 4 11 6 0 8 5 4 12 -5 8 19 38
32 38 0 0 18 -15 38 -34z m174 22 c-6 -18 -28 -21 -28 -4 0 9 7 16 16 16 9 0
14 -5 12 -12z m-58 -28 c0 -5 -4 -10 -10 -10 -5 0 -10 5 -10 10 0 6 5 10 10
10 6 0 10 -4 10 -10z m74 -29 c3 -5 -1 -11 -9 -15 -19 -7 -19 -26 0 -26 19 0
19 -5 -1 -35 -9 -14 -23 -25 -30 -25 -8 0 -17 -7 -20 -15 -8 -20 -38 -19 -59
1 -21 21 -5 41 21 26 22 -12 58 17 48 41 -12 32 33 76 50 48z m176 -10 c14
-27 13 -31 -10 -31 -15 0 -20 7 -20 25 0 30 15 33 30 6z m-340 -51 c0 -5 -4
-10 -10 -10 -5 0 -10 5 -10 10 0 6 5 10 10 10 6 0 10 -4 10 -10z m-41 -19 c11
-11 18 -27 18 -38 -2 -14 4 -18 27 -16 16 1 38 -3 48 -8 20 -11 19 -11 -2 -26
-18 -13 -24 -13 -30 -2 -7 10 -11 10 -23 0 -9 -7 -18 -8 -21 -3 -3 6 -25 5
-53 -2 -44 -10 -46 -11 -19 -16 16 -3 31 -10 33 -17 4 -11 -45 -43 -67 -43
-13 0 -13 41 0 76 8 19 7 30 -2 41 -9 11 -9 16 3 24 23 15 39 10 39 -11 0 -11
5 -20 11 -20 7 0 9 12 5 33 -5 29 -1 47 11 47 2 0 12 -9 22 -19z m236 9 c3 -5
-1 -10 -9 -10 -9 0 -16 5 -16 10 0 6 4 10 9 10 6 0 13 -4 16 -10z m273 -50
c-1 -32 -12 -47 -23 -31 -7 13 5 61 15 61 5 0 8 -14 8 -30z m-258 -10 c0 -13
-49 -30 -56 -19 -12 20 4 37 30 32 14 -3 26 -9 26 -13z m-75 -9 c6 -11 -33
-36 -42 -27 -3 3 -3 12 0 21 7 17 33 20 42 6z m150 -21 c3 -5 1 -10 -4 -10 -6
0 -11 5 -11 10 0 6 2 10 4 10 3 0 8 -4 11 -10z m-214 -72 c10 -13 18 -29 19
-36 0 -7 7 -15 15 -18 8 -4 15 -12 15 -20 0 -16 -26 -19 -35 -4 -5 8 -90 8
-90 0 0 -1 -10 -3 -22 -4 -13 -2 -23 0 -23 3 0 3 -12 11 -26 18 -28 13 -29 10
-9 -53 6 -19 3 -21 -19 -17 -29 6 -32 13 -14 31 9 9 9 15 0 24 -21 21 -13 37
30 59 40 20 42 20 55 3 12 -16 13 -16 13 -1 0 21 19 23 26 3 8 -20 34 -8 34
15 0 25 8 24 31 -3z m147 -31 c2 -12 -1 -15 -12 -11 -22 8 -30 36 -9 32 10 -2
19 -11 21 -21z m-28 -52 c0 -17 -23 -25 -40 -15 -11 7 -11 11 -1 24 14 17 41
11 41 -9z m-294 -68 c8 3 14 -1 14 -10 0 -10 -8 -15 -20 -14 -13 1 -20 8 -19
22 0 11 3 15 5 8 3 -7 12 -9 20 -6z m1051 7 c-3 -3 -12 -4 -19 -1 -8 3 -5 6 6
6 11 1 17 -2 13 -5z m1493 -303 c-1 -45 -15 -24 -25 34 -6 37 -5 39 9 21 9
-11 16 -36 16 -55z m900 18 c0 -10 -4 -19 -10 -19 -5 0 -10 12 -10 26 0 14 4
23 10 19 6 -3 10 -15 10 -26z m-1223 -25 c-3 -3 -12 -4 -19 -1 -8 3 -5 6 6 6
11 1 17 -2 13 -5z m-17 -20 c30 1 61 5 68 9 8 6 13 -1 14 -25 3 -63 -2 -122
-12 -132 -5 -5 -10 -19 -10 -29 0 -30 -22 -97 -32 -97 -4 0 -8 11 -8 24 0 13
-7 29 -15 36 -8 7 -15 18 -15 26 0 7 -6 17 -13 21 -22 13 -65 76 -72 105 -4
15 -13 32 -21 39 -8 6 -14 15 -14 20 0 11 42 17 60 8 8 -4 40 -6 70 -5z m3
-327 c9 -20 12 -37 8 -37 -8 0 -51 90 -51 107 0 13 27 -30 43 -70z m-1943 -47
c0 -5 -5 -10 -11 -10 -5 0 -7 5 -4 10 3 6 8 10 11 10 2 0 4 -4 4 -10z m-22
-73 c-8 -12 -18 -34 -22 -49 -3 -16 -11 -28 -16 -28 -14 0 -12 22 5 44 8 11
15 27 15 36 0 9 6 22 12 28 19 19 23 -4 6 -31z m1802 -326 c0 -5 -6 -12 -12
-15 -7 -3 -4 -4 7 -1 15 4 29 -6 53 -37 17 -23 30 -43 27 -46 -8 -8 -95 53
-95 67 0 8 -6 11 -17 6 -15 -5 -15 -3 2 14 22 22 35 26 35 12z m15 -91 c3 -6
-1 -7 -9 -4 -18 7 -21 14 -7 14 6 0 13 -4 16 -10z m1565 -19 c0 -11 5 -23 10
-26 6 -3 10 -25 10 -47 0 -45 -11 -46 -16 -1 -1 15 -8 29 -13 31 -14 5 -14 62
-1 62 6 0 10 -9 10 -19z m-513 -78 c3 -7 -13 -22 -34 -34 l-39 -22 23 -25 c15
-16 21 -32 18 -44 -5 -13 -2 -16 8 -12 7 2 20 -2 27 -11 12 -14 15 -13 36 6
22 21 26 21 50 8 15 -8 36 -13 48 -12 14 1 16 0 4 -3 -10 -3 -15 -11 -11 -20
3 -9 -1 -14 -13 -14 -15 0 -16 -2 -5 -9 7 -5 11 -13 7 -19 -3 -6 7 -13 24 -17
23 -5 30 -12 30 -31 0 -18 -6 -24 -22 -25 -51 -2 -83 4 -91 17 -10 18 -27 18
-27 0 0 -7 -7 -19 -15 -26 -8 -7 -13 -16 -10 -20 9 -15 -7 -41 -24 -38 -27 4
-44 -11 -30 -28 18 -22 -10 -18 -30 5 -19 21 -78 33 -103 19 -15 -7 -18 -4
-18 17 0 25 14 34 25 15 10 -17 25 -11 25 10 0 11 6 20 13 20 15 0 57 69 57
93 0 9 8 21 18 26 9 6 13 11 7 12 -24 4 -43 6 -81 8 -29 1 -44 6 -48 18 -12
29 10 35 47 13 20 -12 41 -19 46 -15 14 8 2 35 -15 35 -8 0 -14 7 -14 15 0 8
-4 15 -10 15 -5 0 -10 11 -10 24 0 13 -7 26 -15 30 -34 13 -11 24 50 24 36 0
69 2 72 6 9 9 26 2 30 -11z m573 -33 c0 -5 -5 -10 -11 -10 -5 0 -7 5 -4 10 3
6 8 10 11 10 2 0 4 -4 4 -10z m-567 -59 c15 -25 15 -31 4 -31 -19 0 -34 19
-43 55 -6 25 -5 28 7 18 8 -6 22 -25 32 -42z m175 -100 c3 -8 -1 -12 -9 -9 -7
2 -15 10 -17 17 -3 8 1 12 9 9 7 -2 15 -10 17 -17z m174 -93 c-12 -12 -35 -1
-27 12 3 5 13 6 21 3 10 -4 12 -9 6 -15z m-212 -53 c0 -8 -7 -11 -20 -8 -16 4
-18 8 -9 19 13 16 29 10 29 -11z m65 15 c3 -5 1 -10 -4 -10 -6 0 -11 5 -11 10
0 6 2 10 4 10 3 0 8 -4 11 -10z m385 -10 c0 -11 -7 -23 -16 -27 -8 -3 -13 -12
-10 -19 6 -17 -10 -19 -20 -3 -3 6 -1 16 5 22 6 6 11 19 11 29 0 10 7 18 15
18 8 0 15 -9 15 -20z m-331 1 c9 -6 10 -11 2 -15 -13 -8 -31 1 -31 15 0 11 11
11 29 0z m201 -11 c0 -5 -7 -10 -15 -10 -8 0 -15 5 -15 10 0 6 7 10 15 10 8 0
15 -4 15 -10z m45 -20 c3 -5 -1 -10 -9 -10 -8 0 -18 5 -21 10 -3 6 1 10 9 10
8 0 18 -4 21 -10z m-595 -29 c2 -1 -1 -6 -7 -12 -12 -12 -73 -3 -73 11 0 7 51
7 80 1z m294 -25 c-6 -16 -24 -23 -24 -8 0 10 22 33 27 28 2 -2 1 -11 -3 -20z
m81 3 c-8 -12 -35 -12 -35 0 0 11 22 20 33 14 4 -2 5 -9 2 -14z m91 -3 c10 -8
17 -17 14 -19 -3 -3 -16 3 -30 13 -29 22 -14 27 16 6z m259 -42 c33 12 13 -26
-21 -40 -20 -8 -47 -27 -59 -40 -13 -14 -28 -23 -33 -20 -15 9 19 73 45 85 13
6 23 16 23 22 0 8 4 8 15 -1 8 -7 22 -10 30 -6z m-395 -24 c0 -15 -5 -12 -26
11 -19 22 -19 22 4 10 12 -6 22 -16 22 -21z m440 15 c0 -8 -2 -15 -4 -15 -2 0
-6 7 -10 15 -3 8 -1 15 4 15 6 0 10 -7 10 -15z m-800 -61 c0 -15 -4 -23 -11
-18 -6 3 -10 -1 -9 -12 4 -35 0 -43 -20 -41 -14 1 -20 8 -20 27 0 14 4 30 8
35 6 8 41 32 50 34 1 1 2 -11 2 -25z m340 -74 c0 -5 -5 -10 -11 -10 -5 0 -7 5
-4 10 3 6 8 10 11 10 2 0 4 -4 4 -10z m-40 -14 c0 -8 -4 -18 -10 -21 -5 -3
-10 3 -10 14 0 12 5 21 10 21 6 0 10 -6 10 -14z m360 4 c0 -5 -2 -10 -4 -10
-3 0 -8 5 -11 10 -3 6 -1 10 4 10 6 0 11 -4 11 -10z m-67 -19 c12 -11 -4 -71
-19 -71 -8 0 -16 11 -20 25 -3 14 -12 25 -20 25 -8 0 -14 9 -14 21 0 18 4 20
33 14 17 -4 35 -10 40 -14z m-367 -56 c-14 -14 -16 -14 -16 -2 0 9 6 17 13 20
19 7 21 -1 3 -18z m254 -82 c0 -30 -2 -34 -15 -23 -24 20 -18 79 6 64 5 -3 9
-21 9 -41z m338 3 c3 -12 -1 -17 -10 -14 -7 3 -15 13 -16 22 -3 12 1 17 10 14
7 -3 15 -13 16 -22z"/>
<path d="M370 3900 c0 -5 5 -10 10 -10 6 0 10 5 10 10 0 6 -4 10 -10 10 -5 0
-10 -4 -10 -10z"/>
<path d="M2486 3553 c-6 -14 -5 -15 5 -6 7 7 10 15 7 18 -3 3 -9 -2 -12 -12z"/>
<path d="M2651 3524 c0 -11 3 -14 6 -6 3 7 2 16 -1 19 -3 4 -6 -2 -5 -13z"/>
<path d="M2410 3428 c-12 -22 -12 -22 6 -6 10 10 15 20 12 24 -4 3 -12 -5 -18
-18z"/>
<path d="M2456 3275 c-15 -8 -35 -15 -42 -15 -8 0 -14 -4 -14 -10 0 -5 7 -10
15 -10 9 0 12 -6 9 -15 -4 -8 -10 -12 -15 -9 -5 3 -9 0 -9 -5 0 -16 11 -14 48
9 53 32 61 82 8 55z"/>
<path d="M2892 3053 c-11 -10 -28 -30 -37 -45 -20 -32 -21 -31 64 -46 47 -8
56 -7 72 9 11 11 19 28 19 39 0 28 20 25 46 -7 16 -20 28 -26 55 -24 19 1 46
3 60 3 l26 1 -31 28 c-18 15 -44 31 -59 34 -15 4 -30 11 -33 16 -3 5 -40 9
-83 9 -61 0 -83 -4 -99 -17z"/>
<path d="M2460 2525 c-10 -12 -9 -15 6 -15 9 0 32 -5 51 -12 40 -15 52 -5 28
22 -21 24 -67 26 -85 5z"/>
<path d="M2727 2512 c-17 -18 -16 -19 19 -13 40 7 51 24 18 29 -11 2 -28 -6
-37 -16z"/>
<path d="M2590 2480 c0 -15 17 -20 49 -14 44 9 39 22 -9 22 -22 0 -40 -3 -40
-8z"/>
<path d="M2480 2320 c-14 -4 -64 -8 -112 -9 -52 -1 -88 -5 -88 -11 0 -5 9 -10
19 -10 11 0 22 -4 25 -9 7 -10 40 -17 148 -31 46 -5 85 -16 97 -27 20 -17 20
-17 -4 -41 -14 -13 -23 -27 -21 -31 2 -3 25 -5 51 -3 40 4 46 7 42 23 -4 15 2
20 29 25 26 5 32 9 24 19 -13 16 -2 25 29 24 14 0 20 -3 14 -6 -7 -2 -13 -9
-13 -14 0 -14 21 -11 39 5 9 8 39 21 66 28 28 7 59 21 70 31 20 18 19 18 -41
12 -47 -6 -68 -4 -93 10 -36 18 -237 29 -281 15z m160 -110 c0 -5 -4 -10 -10
-10 -5 0 -10 5 -10 10 0 6 5 10 10 10 6 0 10 -4 10 -10z"/>
<path d="M3377 644 c-4 -4 -7 -22 -7 -41 0 -18 -3 -32 -7 -31 -13 2 -43 -13
-43 -22 0 -14 41 2 64 25 19 18 20 26 11 49 -6 14 -14 23 -18 20z"/>
<path d="M3286 505 c-16 -12 -17 -15 -4 -15 8 0 21 7 28 15 16 19 1 19 -24 0z"/>
<path d="M3372 508 c-14 -14 -16 -28 -3 -28 5 0 11 9 14 20 6 23 5 24 -11 8z"/>
<path d="M4560 4178 c-2 -2060 -4 -3035 -8 -3099 -4 -74 -5 -76 -28 -71 -27 5
-32 -9 -9 -28 10 -9 15 -9 15 -1 0 6 4 11 9 11 17 0 6 -35 -16 -53 -16 -13
-23 -29 -23 -53 0 -21 4 -33 10 -29 6 4 8 11 5 16 -4 5 3 21 14 34 10 14 21
22 23 18 2 -4 2 -105 0 -224 l-4 -217 -38 4 c-34 3 -37 1 -33 -16 3 -11 9 -23
14 -26 12 -7 12 -44 0 -44 -5 0 -16 7 -25 15 -21 21 -24 19 -18 -13 5 -23 3
-25 -10 -14 -13 10 -17 10 -21 -2 -4 -10 6 -16 36 -20 22 -4 47 -12 54 -18 7
-5 20 -8 28 -4 12 4 15 -6 15 -60 0 -64 0 -64 -25 -58 -32 8 -32 -6 -1 -35 19
-18 22 -26 13 -36 -15 -17 -27 -9 -27 16 0 19 -1 19 -16 4 -10 -9 -26 -14 -37
-11 -11 3 -29 1 -39 -5 -14 -7 -18 -6 -18 6 0 8 3 15 8 15 6 0 8 47 3 75 -1 6
-10 0 -21 -13 -11 -13 -24 -21 -29 -18 -5 3 -9 -10 -9 -30 0 -21 6 -38 14 -41
8 -3 14 -14 14 -24 0 -10 5 -19 12 -19 6 0 8 -3 4 -7 -4 -5 -19 5 -32 22 -18
23 -26 27 -36 17 -17 -17 -48 -15 -48 2 0 8 9 17 19 21 26 8 33 31 15 46 -11
9 -23 9 -55 0 -21 -7 -43 -10 -48 -7 -5 3 -11 -2 -14 -12 -2 -9 -8 -25 -12
-36 -7 -16 -6 -17 14 -7 12 7 31 9 41 6 17 -6 18 -8 6 -21 -8 -8 -18 -14 -23
-14 -5 0 -20 -5 -34 -12 l-25 -12 32 -28 c17 -15 42 -28 54 -28 13 0 24 -8 27
-20 7 -25 67 -28 80 -5 14 24 74 64 88 59 7 -3 16 -1 20 5 10 18 35 12 35 -7
0 -11 -11 -24 -25 -30 -20 -10 -23 -9 -18 5 4 11 2 14 -8 9 -8 -3 -22 -9 -31
-12 -10 -4 -18 -15 -18 -25 0 -17 9 -19 95 -19 l95 0 0 2295 c0 2033 -2 2295
-15 2295 -13 0 -15 -53 -15 -412z m-10 -4065 c0 -20 -3 -24 -11 -16 -7 7 -9
19 -6 27 10 24 17 19 17 -11z"/>
<path d="M1120 4519 c0 -6 4 -8 9 -5 5 4 7 -2 4 -12 -2 -10 5 -26 16 -36 21
-19 21 -19 21 4 0 18 4 21 24 18 13 -3 32 1 42 9 17 12 16 13 -7 13 -14 0 -29
3 -32 6 -11 11 -77 14 -77 3z"/>
<path d="M1235 4477 c-18 -14 -18 -15 4 -22 27 -8 31 -6 22 18 -6 15 -9 16
-26 4z"/>
<path d="M1495 4460 c3 -5 8 -10 11 -10 2 0 4 5 4 10 0 6 -5 10 -11 10 -5 0
-7 -4 -4 -10z"/>
<path d="M2560 4280 c0 -5 7 -10 16 -10 8 0 12 5 9 10 -3 6 -10 10 -16 10 -5
0 -9 -4 -9 -10z"/>
<path d="M2361 4250 l-23 -20 31 0 c24 0 31 4 31 20 0 25 -8 25 -39 0z"/>
<path d="M3060 4254 c8 -8 23 -20 34 -26 16 -8 15 -4 -6 16 -30 28 -48 35 -28
10z"/>
<path d="M2640 4230 c0 -5 4 -10 9 -10 6 0 13 5 16 10 3 6 -1 10 -9 10 -9 0
-16 -4 -16 -10z"/>
<path d="M1351 4211 c-8 -15 -6 -20 14 -29 15 -7 26 -8 30 -2 4 6 -1 10 -11
10 -11 0 -15 6 -11 20 6 25 -9 26 -22 1z"/>
<path d="M2210 4162 c0 -5 7 -9 15 -9 8 0 15 4 15 9 0 4 -7 8 -15 8 -8 0 -15
-4 -15 -8z"/>
<path d="M2180 4015 c0 -8 2 -15 4 -15 2 0 6 7 10 15 3 8 1 15 -4 15 -6 0 -10
-7 -10 -15z"/>
<path d="M1330 3993 c0 -4 8 -17 16 -28 15 -20 16 -20 12 4 -3 22 -28 44 -28
24z"/>
<path d="M1380 3870 c0 -5 5 -10 10 -10 6 0 10 5 10 10 0 6 -4 10 -10 10 -5 0
-10 -4 -10 -10z"/>
<path d="M1728 3536 c-21 -16 -24 -38 -4 -30 8 3 17 1 21 -5 3 -6 12 -11 20
-11 11 0 11 6 2 30 -13 34 -15 35 -39 16z"/>
<path d="M1347 3190 c-3 -11 -3 -20 -1 -20 2 0 8 9 14 20 6 11 7 20 2 20 -6 0
-12 -9 -15 -20z"/>
<path d="M1022 1358 c-6 -8 -16 -67 -21 -133 -6 -66 -20 -181 -31 -255 -22
-152 -24 -183 -11 -160 19 33 50 232 56 360 4 96 10 142 21 159 18 26 5 51
-14 29z"/>
<path d="M1126 1225 c-13 -30 -17 -73 -17 -185 0 -168 -23 -284 -88 -443 l-39
-94 42 -124 c23 -68 49 -135 58 -149 16 -25 58 -178 58 -212 0 -17 13 -18 182
-18 172 0 180 1 166 18 -12 13 -14 28 -9 65 5 26 11 50 15 54 3 4 23 -3 44
-14 24 -14 71 -25 137 -32 89 -10 128 -18 258 -52 21 -6 37 -16 37 -24 0 -13
48 -15 335 -15 328 0 335 0 335 20 0 15 -7 20 -29 20 -42 0 -315 54 -488 97
-138 34 -153 40 -153 59 0 12 -6 26 -12 32 -17 14 -194 46 -213 38 -17 -6
-104 9 -148 26 -16 6 -33 21 -37 34 -11 27 -68 43 -81 23 -5 -8 -9 -23 -9 -35
0 -27 -24 -59 -38 -50 -15 9 -15 86 -2 157 6 30 12 95 14 144 3 90 18 151 57
226 11 23 19 43 17 44 -13 13 -58 -62 -72 -117 -12 -49 -23 -30 -29 50 -6 78
-15 102 -84 237 -38 75 -91 152 -144 209 l-47 51 -16 -40z m359 -1035 c4 -6
-2 -28 -13 -48 -11 -21 -23 -57 -27 -80 -4 -27 -12 -42 -21 -42 -12 0 -14 11
-12 48 2 37 8 49 25 57 17 7 21 15 17 32 -9 34 15 59 31 33z"/>
<path d="M3675 1200 c-3 -6 1 -7 9 -4 18 7 21 14 7 14 -6 0 -13 -4 -16 -10z"/>
<path d="M2821 1178 c1 -27 15 -52 23 -40 4 6 2 21 -4 32 -12 23 -20 26 -19 8z"/>
<path d="M4526 1041 c-4 -7 -5 -15 -2 -18 9 -9 19 4 14 18 -4 11 -6 11 -12 0z"/>
<path d="M3736 978 c-8 -32 -7 -48 3 -48 12 0 22 53 12 63 -5 5 -11 -2 -15
-15z"/>
<path d="M1462 920 c0 -14 2 -19 5 -12 2 6 2 18 0 25 -3 6 -5 1 -5 -13z"/>
<path d="M1537 916 c-5 -15 -6 -31 -3 -34 8 -8 18 25 14 45 -3 13 -6 10 -11
-11z"/>
<path d="M2149 893 c-13 -16 -12 -17 4 -4 9 7 17 15 17 17 0 8 -8 3 -21 -13z"/>
<path d="M3718 903 c-23 -6 -23 -15 0 -43 12 -15 23 -20 32 -15 10 6 9 10 -4
17 -11 6 -15 16 -11 29 4 10 5 18 3 18 -2 -1 -11 -3 -20 -6z"/>
<path d="M2110 838 c-11 -18 -20 -40 -19 -48 0 -8 7 1 16 20 8 19 20 41 25 48
6 6 8 12 4 12 -3 0 -15 -15 -26 -32z"/>
<path d="M2173 856 c-6 -8 -9 -17 -6 -20 4 -3 -1 -6 -10 -6 -11 0 -17 -8 -17
-22 l0 -23 21 25 c27 35 41 60 32 60 -4 -1 -13 -7 -20 -14z"/>
<path d="M2315 754 c7 -77 17 -105 32 -90 20 20 -2 156 -26 164 -11 4 -12 -10
-6 -74z"/>
<path d="M2430 796 c0 -7 7 -19 15 -26 8 -7 15 -16 15 -21 0 -22 21 -59 31
-53 8 4 8 9 0 17 -6 6 -11 19 -11 29 0 10 -4 18 -9 18 -5 0 -12 11 -15 25 -7
26 -26 35 -26 11z"/>
<path d="M4502 770 c0 -14 2 -19 5 -12 2 6 2 18 0 25 -3 6 -5 1 -5 -13z"/>
<path d="M2110 735 c0 -8 -6 -15 -13 -15 -8 0 -11 -14 -9 -45 4 -43 15 -59 25
-32 2 6 8 8 13 4 5 -4 3 -11 -3 -15 -22 -14 -15 -65 11 -85 8 -6 7 -10 -1 -13
-10 -4 -10 -8 0 -19 7 -7 16 -11 21 -8 4 3 5 -4 1 -16 -3 -11 -2 -21 3 -21 16
0 22 41 7 47 -10 3 -12 14 -8 36 5 26 4 29 -12 23 -14 -5 -15 -3 -7 6 5 7 8
27 5 43 -3 17 -7 51 -10 78 -3 26 -9 47 -14 47 -5 0 -9 -7 -9 -15z"/>
<path d="M4127 736 c-3 -8 1 -20 9 -27 20 -16 23 -9 9 19 -10 18 -14 20 -18 8z"/>
<path d="M4462 735 c-13 -7 -19 -16 -14 -19 9 -5 42 18 42 30 0 5 1 5 -28 -11z"/>
<path d="M4480 700 c0 -5 5 -10 10 -10 6 0 10 -7 10 -15 0 -19 -10 -19 -35 -2
-11 8 -34 17 -52 20 l-32 6 41 -44 c40 -43 68 -57 68 -34 0 5 5 7 10 4 6 -4
10 12 10 39 0 34 -4 46 -15 46 -8 0 -15 -4 -15 -10z"/>
<path d="M2865 690 c-3 -5 1 -10 9 -10 9 0 16 5 16 10 0 6 -4 10 -9 10 -6 0
-13 -4 -16 -10z"/>
<path d="M2190 622 c0 -28 28 -97 36 -89 10 9 -4 71 -21 93 -14 18 -14 18 -15
-4z"/>
<path d="M3840 620 c-23 -7 -12 -15 18 -11 6 1 12 -3 12 -9 0 -5 14 -10 31
-10 18 0 28 4 24 10 -4 6 -10 8 -15 5 -4 -3 -13 2 -20 10 -14 16 -14 17 -50 5z"/>
<path d="M4072 615 c-15 -17 -48 -20 -57 -5 -9 14 -25 12 -25 -3 0 -26 49 -43
113 -38 26 2 33 30 11 46 -23 18 -26 18 -42 0z"/>
<path d="M2500 620 c-8 -26 -25 -197 -20 -203 6 -7 19 47 21 88 0 6 6 17 13
25 11 12 11 22 1 55 -7 22 -14 38 -15 35z"/>
<path d="M2848 603 c7 -3 16 -2 19 1 4 3 -2 6 -13 5 -11 0 -14 -3 -6 -6z"/>
<path d="M4500 569 c0 -11 4 -18 10 -14 5 3 7 12 3 20 -7 21 -13 19 -13 -6z"/>
<path d="M3895 560 c-4 -6 5 -10 20 -10 15 0 24 4 20 10 -3 6 -12 10 -20 10
-8 0 -17 -4 -20 -10z"/>
<path d="M2325 515 c16 -51 17 -51 26 -27 10 27 4 42 -16 42 -8 0 -12 -7 -10
-15z"/>
<path d="M2231 503 c0 -6 -4 -18 -7 -27 -5 -13 1 -16 27 -15 23 1 27 3 12 6
-13 2 -24 13 -26 26 -2 12 -5 17 -6 10z"/>
<path d="M964 333 c12 -298 16 -333 38 -333 19 0 19 6 13 178 -5 132 -12 194
-27 245 -11 37 -22 67 -25 67 -4 0 -3 -71 1 -157z"/>
<path d="M4340 440 c0 -5 5 -10 11 -10 5 0 7 5 4 10 -3 6 -8 10 -11 10 -2 0
-4 -4 -4 -10z"/>
<path d="M4360 360 c0 -5 9 -10 21 -10 11 0 17 5 14 10 -3 6 -13 10 -21 10 -8
0 -14 -4 -14 -10z"/>
<path d="M4450 205 c0 -8 5 -15 10 -15 6 0 10 7 10 15 0 8 -4 15 -10 15 -5 0
-10 -7 -10 -15z"/>
<path d="M3171 98 c-1 -60 3 -98 9 -98 12 0 12 98 1 155 -7 32 -9 21 -10 -57z"/>
<path d="M3300 55 c0 -8 -4 -15 -10 -15 -5 0 -10 -4 -10 -10 0 -18 17 -10 34
15 14 22 15 25 1 25 -8 0 -15 -7 -15 -15z"/>
<path d="M3065 19 c-34 -15 -36 -18 -15 -18 24 0 69 24 59 33 -2 2 -22 -5 -44
-15z"/>
<path d="M4187 23 c-13 -12 -7 -23 13 -23 11 0 20 7 20 15 0 15 -21 21 -33 8z"/>
</g>
</svg>
